<?xml version="1.0" standalone="no"?>
<!DOCTYPE svg PUBLIC "-//W3C//DTD SVG 20010904//EN"
 "http://www.w3.org/TR/2001/REC-SVG-20010904/DTD/svg10.dtd">
<svg version="1.0" xmlns="http://www.w3.org/2000/svg"
 width="260.000000pt" height="260.000000pt" viewBox="0 0 260.000000 260.000000"
 preserveAspectRatio="xMidYMid meet">
<metadata>
Created by potrace 1.11, written by Peter Selinger 2001-2013
</metadata>
<g transform="translate(0.000000,260.000000) scale(0.100000,-0.100000)"
fill="#000000" stroke="none">
<path d="M990 1845 l0 -755 253 0 c138 1 410 -1 602 -4 193 -3 414 -5 493 -6
l142 0 0 -215 0 -215 -702 1 c-387 0 -725 4 -753 9 -27 4 -45 8 -40 9 6 0 8
35 5 91 l-5 89 45 4 c25 2 -119 4 -320 5 -201 1 -443 5 -537 9 l-173 6 0 -111
0 -112 375 0 375 0 0 -325 0 -325 925 0 925 0 0 1300 0 1300 -805 0 -805 0 0
-755z"/>
</g>
</svg>
